<?xml version="1.0" standalone="no"?>
<!DOCTYPE svg PUBLIC "-//W3C//DTD SVG 20010904//EN"
 "http://www.w3.org/TR/2001/REC-SVG-20010904/DTD/svg10.dtd">
<svg version="1.0" xmlns="http://www.w3.org/2000/svg"
 width="700.000000pt" height="700.000000pt" viewBox="0 0 700.000000 700.000000"
 preserveAspectRatio="xMidYMid meet">
<metadata>
Created by potrace 1.11, written by Peter Selinger 2001-2013
</metadata>
<g transform="translate(0.000000,700.000000) scale(0.100000,-0.100000)"
fill="#000000" stroke="none">
<path d="M68 6989 c-15 -6 -36 -25 -48 -43 -20 -33 -20 -37 -20 -2277 0 -1775
3 -2249 13 -2269 7 -13 26 -34 43 -45 l31 -21 2250 0 c2129 1 2250 2 2276 19
57 37 54 -118 53 2319 l-1 2247 -21 28 c-11 15 -32 34 -45 40 -31 16 -4488 17
-4531 2z"/>
<path d="M5419 6977 c-22 -14 -37 -35 -44 -59 -7 -25 -10 -770 -9 -2265 1
-2037 2 -2231 17 -2259 33 -63 8 -61 809 -60 721 1 727 1 755 22 15 11 34 32
40 45 10 19 13 506 13 2262 0 1942 -2 2242 -15 2273 -27 66 -3 64 -808 64
l-724 0 -34 -23z"/>
<path d="M106 1632 c-16 -2 -40 -11 -53 -19 -54 -36 -53 -14 -53 -793 0 -801
-2 -772 65 -804 30 -14 254 -16 2272 -16 1756 0 2243 3 2262 13 13 6 34 25 45
40 21 28 21 33 21 761 0 799 2 765 -58 801 -30 18 -107 19 -2252 19 -1221 1
-2233 0 -2249 -2z"/>
</g>
</svg>
